<?xml version="1.0" encoding="UTF-8"?>
<!DOCTYPE svg PUBLIC "-//W3C//DTD SVG 1.1//EN" "http://www.w3.org/Graphics/SVG/1.1/DTD/svg11.dtd">
<svg xmlns="http://www.w3.org/2000/svg" version="1.1" width="636px" height="218px" style="shape-rendering:geometricPrecision; text-rendering:geometricPrecision; image-rendering:optimizeQuality; fill-rule:evenodd; clip-rule:evenodd" xmlns:xlink="http://www.w3.org/1999/xlink">
<g><path style="opacity:0.998" fill="#68a5de" d="M 512.5,1.5 C 559.165,-2.24958 594.999,15.4171 620,54.5C 636.609,85.491 638.609,117.491 626,150.5C 605.988,192.514 572.655,214.181 526,215.5C 485.952,214.483 455.286,197.15 434,163.5C 415.832,128.975 414.832,93.9748 431,58.5C 449.234,26.772 476.4,7.77203 512.5,1.5 Z M 514.5,10.5 C 563.068,8.02197 597.568,28.6886 618,72.5C 634.421,127.932 617.588,169.766 567.5,198C 524.455,214.725 486.621,206.892 454,174.5C 428.175,143.364 422.175,108.697 436,70.5C 451.67,36.6522 477.836,16.6522 514.5,10.5 Z"/></g>
<g><path style="opacity:0.995" fill="#539cdb" d="M 532.5,46.5 C 540.08,47.4657 547.747,47.799 555.5,47.5C 555.5,88.1667 555.5,128.833 555.5,169.5C 547.5,169.5 539.5,169.5 531.5,169.5C 531.173,128.428 531.506,87.4276 532.5,46.5 Z"/></g>
<g><path style="opacity:1" fill="#191919" d="M 74.5,79.5 C 73.8333,79.8333 73.1667,80.1667 72.5,80.5C 70.9731,80.573 69.9731,79.9063 69.5,78.5C 69.0269,77.0937 68.0269,76.427 66.5,76.5C 53.3525,69.6953 40.3525,69.8619 27.5,77C 22.3516,81.4662 18.8516,86.9662 17,93.5C 15.4575,102.104 15.1242,110.77 16,119.5C 22.486,142.664 37.3193,150.497 60.5,143C 64.9625,140.7 69.2958,138.2 73.5,135.5C 75.8268,138.137 76.9935,141.137 77,144.5C 65.6137,154.185 52.4471,157.685 37.5,155C 20.2562,151.759 9.4229,141.592 5,124.5C 1.50105,108.389 3.50105,93.0558 11,78.5C 19.5932,66.2882 31.4266,60.6215 46.5,61.5C 56.3489,61.0624 65.3489,63.5624 73.5,69C 78.4914,72.1379 78.8247,75.6379 74.5,79.5 Z"/></g>
<g><path style="opacity:1" fill="#0d0d0d" d="M 103.5,62.5 C 103.333,75.1711 103.5,87.8377 104,100.5C 104.717,99.9558 105.217,99.2891 105.5,98.5C 108.237,93.9582 112.237,91.1249 117.5,90C 125.529,88.6441 133.195,89.6441 140.5,93C 144.856,96.8775 147.189,101.711 147.5,107.5C 147.5,122.833 147.5,138.167 147.5,153.5C 144.167,153.5 140.833,153.5 137.5,153.5C 137.92,137.784 137.42,122.117 136,106.5C 130.237,98.2362 122.737,96.4029 113.5,101C 109.961,102.907 107.461,105.74 106,109.5C 104.566,124.442 104.066,139.442 104.5,154.5C 100.833,154.5 97.1667,154.5 93.5,154.5C 93.5,123.833 93.5,93.1667 93.5,62.5C 96.8333,62.5 100.167,62.5 103.5,62.5 Z"/></g>
<g><path style="opacity:0.503" fill="#828282" d="M 103.5,62.5 C 104.167,74.5 104.833,86.5 105.5,98.5C 105.217,99.2891 104.717,99.9558 104,100.5C 103.5,87.8377 103.333,75.1711 103.5,62.5 Z"/></g>
<g><path style="opacity:0.777" fill="#404040" d="M 296.5,90.5 C 295.51,84.69 295.177,78.69 295.5,72.5C 292.5,72.5 289.5,72.5 286.5,72.5C 286.823,78.69 286.49,84.69 285.5,90.5C 285.5,84.1667 285.5,77.8333 285.5,71.5C 289.167,71.5 292.833,71.5 296.5,71.5C 296.5,77.8333 296.5,84.1667 296.5,90.5 Z"/></g>
<g><path style="opacity:1" fill="#101010" d="M 296.5,90.5 C 301.975,91.4889 307.642,91.8222 313.5,91.5C 313.5,93.8333 313.5,96.1667 313.5,98.5C 307.642,98.1778 301.975,98.5111 296.5,99.5C 296.075,112.894 296.575,126.227 298,139.5C 299.167,142 301,143.833 303.5,145C 307.73,146.29 312.064,146.79 316.5,146.5C 315.841,149.455 315.508,152.455 315.5,155.5C 308.639,156.035 301.972,155.202 295.5,153C 290.491,149.822 287.324,145.322 286,139.5C 285.5,126.171 285.333,112.837 285.5,99.5C 281.5,99.5 277.5,99.5 273.5,99.5C 273.5,96.5 273.5,93.5 273.5,90.5C 277.5,90.5 281.5,90.5 285.5,90.5C 286.49,84.69 286.823,78.69 286.5,72.5C 289.5,72.5 292.5,72.5 295.5,72.5C 295.177,78.69 295.51,84.69 296.5,90.5 Z"/></g>
<g><path style="opacity:0.565" fill="#808080" d="M 66.5,76.5 C 68.0269,76.427 69.0269,77.0937 69.5,78.5C 67.9731,78.573 66.9731,77.9063 66.5,76.5 Z"/></g>
<g><path style="opacity:0.994" fill="#539cdb" d="M 564.5,76.5 C 572.124,77.3978 579.791,77.7311 587.5,77.5C 587.5,108.167 587.5,138.833 587.5,169.5C 579.833,169.5 572.167,169.5 564.5,169.5C 564.474,138.322 564.474,107.322 564.5,76.5 Z"/></g>
<g><path style="opacity:0.063" fill="#b1b1b1" d="M 74.5,79.5 C 74.2893,81.4241 73.6226,81.7574 72.5,80.5C 73.1667,80.1667 73.8333,79.8333 74.5,79.5 Z"/></g>
<g><path style="opacity:1" fill="#141414" d="M 216.5,107.5 C 216.5,122.833 216.5,138.167 216.5,153.5C 213.5,153.5 210.5,153.5 207.5,153.5C 207.817,150.428 207.484,147.428 206.5,144.5C 205.702,144.957 205.369,145.624 205.5,146.5C 199.408,154.366 191.408,157.199 181.5,155C 166.95,150.4 162.117,140.9 167,126.5C 172.244,120.968 178.744,118.135 186.5,118C 193.158,117.5 199.825,117.334 206.5,117.5C 208.126,102.958 201.793,96.7914 187.5,99C 182.962,100.012 178.629,101.512 174.5,103.5C 173.167,103.5 171.833,103.5 170.5,103.5C 169.136,101.78 168.136,99.78 167.5,97.5C 177.676,90.2924 189.009,87.7924 201.5,90C 210.807,92.1019 215.807,97.9352 216.5,107.5 Z M 193.5,124.5 C 197.833,124.5 202.167,124.5 206.5,124.5C 206.484,141.032 198.484,147.865 182.5,145C 177.508,141.843 175.675,137.343 177,131.5C 178.109,129.185 179.943,127.685 182.5,127C 186.28,126.082 189.946,125.249 193.5,124.5 Z"/></g>
<g><path style="opacity:1" fill="#141414" d="M 236.5,154.5 C 236.5,133.5 236.5,112.5 236.5,91.5C 239.833,91.5 243.167,91.5 246.5,91.5C 246.335,94.5184 246.502,97.5184 247,100.5C 252.949,92.112 261.116,88.4454 271.5,89.5C 272.573,92.7209 272.573,95.8876 271.5,99C 261.824,98.108 254.324,101.608 249,109.5C 247.549,124.428 247.049,139.428 247.5,154.5C 243.833,154.5 240.167,154.5 236.5,154.5 Z"/></g>
<g><path style="opacity:1" fill="#191919" d="M 340.5,89.5 C 347.574,89.161 354.574,89.661 361.5,91C 365.681,92.5127 369.348,94.846 372.5,98C 371.192,100.795 369.526,103.295 367.5,105.5C 359.501,98.7787 350.501,96.9453 340.5,100C 334.733,103.938 334.066,108.605 338.5,114C 345.99,116.834 353.656,119.167 361.5,121C 373.345,126.87 376.178,135.703 370,147.5C 363.727,153.426 356.227,156.092 347.5,155.5C 339.631,155.76 332.298,153.927 325.5,150C 324.01,149.255 323.01,148.088 322.5,146.5C 323.389,143.721 324.556,141.055 326,138.5C 335.814,146.396 346.647,148.23 358.5,144C 363.336,140.166 363.67,135.999 359.5,131.5C 351.711,128.385 343.711,125.885 335.5,124C 324.691,118.241 321.858,109.741 327,98.5C 330.86,94.3353 335.36,91.3353 340.5,89.5 Z"/></g>
<g><path style="opacity:0.249" fill="#b7b7b7" d="M 246.5,91.5 C 243.167,91.5 239.833,91.5 236.5,91.5C 236.5,112.5 236.5,133.5 236.5,154.5C 235.503,133.34 235.169,112.007 235.5,90.5C 239.371,90.185 243.038,90.5184 246.5,91.5 Z"/></g>
<g><path style="opacity:0.774" fill="#525252" d="M 296.5,90.5 C 302.5,90.5 308.5,90.5 314.5,90.5C 314.5,93.5 314.5,96.5 314.5,99.5C 308.5,99.5 302.5,99.5 296.5,99.5C 301.975,98.5111 307.642,98.1778 313.5,98.5C 313.5,96.1667 313.5,93.8333 313.5,91.5C 307.642,91.8222 301.975,91.4889 296.5,90.5 Z"/></g>
<g><path style="opacity:0.973" fill="#7d7d7d" d="M 170.5,103.5 C 171.833,103.5 173.167,103.5 174.5,103.5C 173.739,104.391 172.739,105.058 171.5,105.5C 170.702,105.043 170.369,104.376 170.5,103.5 Z"/></g>
<g><path style="opacity:0.995" fill="#559ddb" d="M 498.5,108.5 C 507.004,108.033 515.337,108.533 523.5,110C 522.902,129.783 522.569,149.616 522.5,169.5C 514.5,169.5 506.5,169.5 498.5,169.5C 498.5,149.167 498.5,128.833 498.5,108.5 Z"/></g>
<g><path style="opacity:0.768" fill="#474747" d="M 147.5,107.5 C 148.496,122.991 148.83,138.658 148.5,154.5C 144.629,154.815 140.962,154.482 137.5,153.5C 140.833,153.5 144.167,153.5 147.5,153.5C 147.5,138.167 147.5,122.833 147.5,107.5 Z"/></g>
<g><path style="opacity:0.992" fill="#539cdb" d="M 465.5,139.5 C 473.5,139.5 481.5,139.5 489.5,139.5C 489.5,149.5 489.5,159.5 489.5,169.5C 481.457,169.565 473.623,169.565 466,169.5C 465.5,159.506 465.334,149.506 465.5,139.5 Z"/></g>
<g><path style="opacity:0.767" fill="#5e5e5e" d="M 216.5,107.5 C 217.496,122.991 217.83,138.658 217.5,154.5C 213.833,154.5 210.167,154.5 206.5,154.5C 206.806,151.615 206.473,148.948 205.5,146.5C 205.369,145.624 205.702,144.957 206.5,144.5C 207.484,147.428 207.817,150.428 207.5,153.5C 210.5,153.5 213.5,153.5 216.5,153.5C 216.5,138.167 216.5,122.833 216.5,107.5 Z"/></g>
</svg>
