<svg xmlns="http://www.w3.org/2000/svg" version="1.1" xmlns:xlink="http://www.w3.org/1999/xlink" xmlns:svgjs="http://svgjs.dev/svgjs" width="500" height="800" preserveAspectRatio="none" viewBox="0 0 500 800"><g mask="url(&quot;#SvgjsMask1081&quot;)" fill="none"><path d="M442.191,830.834C470.003,830.625,498.381,822.681,513.338,799.232C529.376,774.089,529.773,742.014,515.578,715.786C500.665,688.232,473.522,667.936,442.191,667.775C410.611,667.613,382.725,687.364,367.486,715.024C352.779,741.718,352.649,774.703,369.17,800.314C384.497,824.074,413.917,831.046,442.191,830.834" fill="rgba(28, 83, 142, 0.4)" class="triangle-float2"></path><path d="M474.186,702.562C506.197,702.437,535.286,686.893,553.242,660.392C574.037,629.702,590.793,590.229,571.92,558.321C553.238,526.736,510.801,524.299,474.186,526.73C442.528,528.832,412.867,542.714,396.608,569.959C379.931,597.905,377.614,632.926,394.048,661.016C410.333,688.851,441.937,702.688,474.186,702.562" fill="rgba(28, 83, 142, 0.4)" class="triangle-float2"></path><path d="M375.739,205.58C388.334,205.465,400.038,198.878,406.257,187.925C412.401,177.104,411.1,164.233,405.536,153.102C399.195,140.418,389.906,127.51,375.739,126.878C360.787,126.211,347.766,136.895,340.953,150.222C334.707,162.44,336.942,176.871,344.243,188.49C351.054,199.33,362.938,205.697,375.739,205.58" fill="rgba(28, 83, 142, 0.4)" class="triangle-float2"></path><path d="M211.697,305.172C256.424,301.782,290.364,269.336,312.499,230.323C334.28,191.934,346.041,145.529,323.96,107.311C301.888,69.109,255.782,54.106,211.697,55.852C170.764,57.474,136.966,81.814,113.851,115.634C86.345,155.877,58.066,204.601,80.426,247.915C103.897,293.38,160.677,309.039,211.697,305.172" fill="rgba(28, 83, 142, 0.4)" class="triangle-float2"></path><path d="M86.593,469.095C120.209,468.759,148.825,447.666,166.164,418.865C184.15,388.989,194.113,351.074,175.336,321.689C157.472,293.733,119.753,293.311,86.593,294.338C55.846,295.29,23.706,301.149,6.887,326.906C-11.399,354.909,-12.133,391.308,4.221,420.482C20.93,450.289,52.424,469.436,86.593,469.095" fill="rgba(28, 83, 142, 0.4)" class="triangle-float2"></path><path d="M357.633,732.826C390.629,733.746,413.408,702.64,428.12,673.091C441.051,647.118,440.945,617.75,427.804,591.882C413.12,562.976,390.051,533.834,357.633,534.337C325.718,534.832,304.804,565.159,291.133,594.002C279.598,618.338,282.007,645.053,293.642,669.341C307.555,698.385,325.442,731.928,357.633,732.826" fill="rgba(28, 83, 142, 0.4)" class="triangle-float1"></path><path d="M343.741,428.38C372.67,426.599,397.56,410.966,413.301,386.629C430.808,359.56,444.186,325.698,428.294,297.651C412.257,269.349,376.261,264.684,343.741,263.864C309.159,262.992,270.335,264.2,251.461,293.191C231.344,324.091,236.788,365.762,257.575,396.216C276.1,423.355,310.944,430.399,343.741,428.38" fill="rgba(28, 83, 142, 0.4)" class="triangle-float3"></path><path d="M50.065,345.172C86.017,345.175,113.033,317.842,132.704,287.749C155.153,253.406,180.33,212.197,160.444,176.309C140.247,139.86,91.736,138.485,50.065,138.612C8.708,138.738,-39.112,140.803,-59.154,176.979C-78.876,212.576,-54.717,253.607,-32.554,287.737C-12.976,317.887,14.116,345.169,50.065,345.172" fill="rgba(28, 83, 142, 0.4)" class="triangle-float2"></path><path d="M67.508,823.37C96.278,822.775,119.889,802.832,133.822,777.654C147.271,753.35,149.351,724.187,135.817,699.93C121.937,675.054,95.935,656.968,67.508,658.806C41.35,660.497,26.199,685.251,12.956,707.873C-0.494,730.849,-15.102,756.426,-3.732,780.499C8.954,807.359,37.809,823.984,67.508,823.37" fill="rgba(28, 83, 142, 0.4)" class="triangle-float3"></path></g><defs><mask id="SvgjsMask1081"><rect width="500" height="800" fill="#ffffff"></rect></mask><style>
                @keyframes float1 {
                    0%{transform: translate(0, 0)}
                    50%{transform: translate(-10px, 0)}
                    100%{transform: translate(0, 0)}
                }

                .triangle-float1 {
                    animation: float1 5s infinite;
                }

                @keyframes float2 {
                    0%{transform: translate(0, 0)}
                    50%{transform: translate(-5px, -5px)}
                    100%{transform: translate(0, 0)}
                }

                .triangle-float2 {
                    animation: float2 4s infinite;
                }

                @keyframes float3 {
                    0%{transform: translate(0, 0)}
                    50%{transform: translate(0, -10px)}
                    100%{transform: translate(0, 0)}
                }

                .triangle-float3 {
                    animation: float3 6s infinite;
                }
            </style></defs></svg>