<svg xmlns="http://www.w3.org/2000/svg" version="1.1" xmlns:xlink="http://www.w3.org/1999/xlink" xmlns:svgjs="http://svgjs.dev/svgjs" width="1920" height="1080" preserveAspectRatio="none" viewBox="0 0 1920 1080"><g mask="url(&quot;#SvgjsMask1065&quot;)" fill="none"><path d="M574.462,954.077C638.861,952.773,696.746,915.093,727.249,858.361C756.224,804.47,747.043,741.138,717.869,687.354C687.013,630.468,639.13,574.186,574.462,576.686C512.234,579.091,479.846,643.616,449.052,697.744C418.771,750.971,383.654,809.768,410.566,864.775C439.871,924.673,507.794,955.427,574.462,954.077" fill="rgba(28, 83, 142, 0.4)" class="triangle-float2"></path><path d="M173.776,798.268C263.261,802.79,340.311,740.787,385.067,663.167C429.775,585.63,444.565,488.058,395.989,412.884C350.408,342.344,257.62,331.31,173.776,336.18C99.812,340.476,29.206,372.16,-7.812,436.338C-44.804,500.472,-36.704,577.354,-3.502,643.53C34.198,718.672,89.814,794.025,173.776,798.268" fill="rgba(28, 83, 142, 0.4)" class="triangle-float3"></path><path d="M1026.005,398.732C1095.444,399.949,1141.627,334.05,1173.867,272.537C1203.308,216.365,1215.263,151.107,1185.002,95.372C1153.414,37.193,1092.16,2.68,1026.005,0.209C954.998,-2.443,877.824,19.645,845.013,82.673C813.749,142.729,853.209,208.753,886.855,267.507C920.812,326.805,957.682,397.535,1026.005,398.732" fill="rgba(28, 83, 142, 0.4)" class="triangle-float2"></path><path d="M1975.809,1350.51C2059.014,1352.275,2150.491,1346.312,2196.94,1277.256C2247.834,1201.592,2242.942,1100.649,2196.766,1022.017C2151.163,944.36,2065.858,899.506,1975.809,900.697C1887.808,901.861,1807.694,950.909,1764.748,1027.729C1722.813,1102.74,1723.325,1196.279,1770.356,1268.204C1813.63,1334.384,1896.755,1348.833,1975.809,1350.51" fill="rgba(28, 83, 142, 0.4)" class="triangle-float1"></path><path d="M513.606,541.172C580.287,541.097,625.663,480.127,656.353,420.929C684.165,367.282,690.521,306.018,663.552,251.942C633.203,191.089,581.558,137.28,513.606,134.705C441.949,131.989,374.666,175.643,342.591,239.778C313.255,298.436,337.934,364.209,370.3,421.251C403.246,479.315,446.846,541.247,513.606,541.172" fill="rgba(28, 83, 142, 0.4)" class="triangle-float1"></path><path d="M2020.653,1012.084C2107.38,1013.339,2192.102,982.789,2241.661,911.606C2299.717,828.218,2336.799,718.806,2286.174,630.709C2235.433,542.41,2122.493,526.972,2020.653,527.008C1918.898,527.044,1804.877,541.948,1755.46,630.898C1706.892,718.32,1753.342,823.271,1810.455,905.365C1858.553,974.501,1936.441,1010.865,2020.653,1012.084" fill="rgba(28, 83, 142, 0.4)" class="triangle-float1"></path><path d="M250.89,301.926C321.6,297.321,367.231,235.202,402.008,173.463C435.918,113.264,462.947,43.494,430.963,-17.75C397.045,-82.697,324.106,-118.725,250.89,-115.902C182.059,-113.248,129.166,-63.579,93.364,-4.732C55.683,57.203,28.222,131.162,61.348,195.648C96.821,264.705,173.419,306.971,250.89,301.926" fill="rgba(28, 83, 142, 0.4)" class="triangle-float3"></path><path d="M1439.599,1158.857C1503.305,1155.128,1554.756,1110.865,1584.493,1054.402C1612.106,1001.972,1610.671,940.391,1581.955,888.557C1552.257,834.952,1500.836,795.221,1439.599,792.863C1374.238,790.346,1311.891,821.551,1276.895,876.81C1239.232,936.28,1226.834,1012.304,1262.008,1073.279C1297.2,1134.285,1369.29,1162.973,1439.599,1158.857" fill="rgba(28, 83, 142, 0.4)" class="triangle-float1"></path><path d="M1566.958,518.858C1656.806,517.111,1724.873,446.751,1768.285,368.068C1809.968,292.519,1822.571,203.767,1783.153,127.012C1740.116,43.209,1661.003,-29.508,1566.958,-23.963C1478.632,-18.755,1432.766,72.234,1390.832,150.145C1351.988,222.315,1316.269,302.216,1351.596,376.171C1391.379,459.454,1474.678,520.653,1566.958,518.858" fill="rgba(28, 83, 142, 0.4)" class="triangle-float3"></path></g><defs><mask id="SvgjsMask1065"><rect width="1920" height="1080" fill="#ffffff"></rect></mask><style>
                @keyframes float1 {
                    0%{transform: translate(0, 0)}
                    50%{transform: translate(-10px, 0)}
                    100%{transform: translate(0, 0)}
                }

                .triangle-float1 {
                    animation: float1 5s infinite;
                }

                @keyframes float2 {
                    0%{transform: translate(0, 0)}
                    50%{transform: translate(-5px, -5px)}
                    100%{transform: translate(0, 0)}
                }

                .triangle-float2 {
                    animation: float2 4s infinite;
                }

                @keyframes float3 {
                    0%{transform: translate(0, 0)}
                    50%{transform: translate(0, -10px)}
                    100%{transform: translate(0, 0)}
                }

                .triangle-float3 {
                    animation: float3 6s infinite;
                }
            </style></defs></svg>